<svg width="44" height="44" viewBox="0 0 44 44" fill="none" xmlns="http://www.w3.org/2000/svg" data-cursor="true" style="transform: none;"><rect x="0.5" y="1" width="42" height="42" rx="21" stroke="#FFFFFF" vector-effect="non-scaling-stroke" fill="rgba(5, 0, 232, 1)" stroke-width="2"></rect><path d="M22.2541 22.204L26.4678 29.4047C26.5161 29.4872 26.4884 29.593 26.4058 29.6413C26.3908 29.6501 26.3749 29.6564 26.3586 29.6602C26.2865 29.6775 26.2085 29.6467 26.1692 29.5795L21.9555 22.3787L18.5962 24.3445L21.813 29.8417C22.2902 30.6572 23.205 31.2252 24.1294 31.3144L26.0776 34.6436L30.8409 31.8562L28.9106 28.5576C29.3131 27.6997 29.2745 26.5941 28.7868 25.7608L25.57 20.2636L22.2541 22.204Z" fill="rgba(255, 255, 255, 1)"></path><path d="M11.9832 21.7054C12.0608 21.8379 12.0456 21.9993 11.9575 22.115C11.929 22.1525 11.8929 22.1851 11.8497 22.2104L8.87719 17.1308L5.51221 19.0999L12.3313 30.7529L15.6962 28.7838L12.7053 23.6727C12.7486 23.6473 12.7947 23.6318 12.8413 23.6253C12.9852 23.605 13.1333 23.6708 13.211 23.8036L16.0159 28.5968L19.3051 26.672L17.4565 23.5129C16.4565 21.804 13.7412 22.1062 12.4087 22.8859C13.7409 22.1063 15.4211 20.0347 14.4911 18.4453L12.4861 15.0189L9.19682 16.9437L11.9832 21.7054Z" fill="rgba(255, 255, 255, 1)"></path><path d="M21.5201 20.9207C21.5723 21.01 21.5426 21.1243 21.4537 21.1763C21.4374 21.1858 21.4203 21.1925 21.4028 21.1966C21.325 21.2152 21.2408 21.1817 21.1983 21.109L14.78 10.1408L11.4304 12.1008L16.7698 21.2253C18.2425 23.742 20.4799 22.6474 21.818 21.9062L21.8185 21.907C21.8263 21.9024 21.834 21.8976 21.8416 21.8931C21.8494 21.8886 21.8574 21.8842 21.865 21.8798L21.8645 21.879C23.1661 21.0754 25.2164 19.6611 23.7436 17.1443L18.4043 8.01993L15.1015 9.95262L21.5198 20.9209L21.5201 20.9207Z" fill="rgba(255, 255, 255, 1)"></path><path d="M29.7516 13.6617L25.241 16.3012C24.6852 16.6265 24.4955 17.336 24.8174 17.886L30.5798 27.7333L33.7141 25.8992L30.8779 21.0525C30.8344 20.9782 30.854 20.8842 30.92 20.8316C30.9265 20.8265 30.9333 20.8215 30.9406 20.8172C31.0233 20.7688 31.1288 20.7959 31.1767 20.8777L34.0129 25.7244L37.1037 23.9157L31.3417 14.0691C31.0197 13.5188 30.3077 13.3363 29.7514 13.6619L29.7516 13.6617ZM30.3527 19.5693C30.3962 19.6437 30.3766 19.7376 30.3106 19.7903C30.3042 19.7954 30.2973 19.8004 30.29 19.8046C30.2074 19.853 30.1018 19.826 30.0539 19.7442L27.9347 16.1226C27.8868 16.0408 27.9149 15.9355 27.9976 15.8871C28.0049 15.8829 28.0126 15.8793 28.0202 15.8762C28.0985 15.8445 28.19 15.8734 28.2335 15.9477L30.3527 19.5693Z" fill="rgba(255, 255, 255, 1)"></path></svg>